<svg id="OBJECTS" xmlns="http://www.w3.org/2000/svg" viewBox="0 0 413.65 137.94"><defs><style>.cls-1{fill:#ede119;}.cls-2{fill:#fdf9a2;}.cls-3,.cls-7{fill:#fff;}.cls-4{fill:#ffc200;}.cls-5{fill:#fc6827;}.cls-6{fill:#ff7a35;}.cls-7{opacity:0.2;}.cls-8{fill:#367799;}.cls-9{fill:#86dcff;}.cls-10{fill:#dc7391;}</style></defs><path class="cls-1" d="M328.06,72.83a82.82,82.82,0,0,1-20.83-6.16c-1,4.73-4.05,6.42-4.05,6.42a30.92,30.92,0,0,0-5,3.9,90.74,90.74,0,0,0,15,3.9C330.16,83.68,336.81,74.09,328.06,72.83Z" transform="translate(-3.84 -3.22)"/><path class="cls-1" d="M383,80.78A81.84,81.84,0,0,0,397.43,77a31.32,31.32,0,0,0-5.05-3.94s-3.59-2-4.23-7.61a74.91,74.91,0,0,1-19.75,5.85C359.62,72.52,366,83.49,383,80.78Z" transform="translate(-3.84 -3.22)"/><path class="cls-1" d="M397.43,77A81.84,81.84,0,0,1,383,80.78c-17,2.71-23.39-8.26-14.61-9.45a74.91,74.91,0,0,0,19.75-5.85,19,19,0,0,1,.45-6.37c2.59-14,1-29.85-7.92-42.6C373.19,5.86,356,3.22,347,3.22c-7.22,0-24.58,3.24-32.08,13.89-9,12.75-10.5,28-7.91,42a18,18,0,0,1,.26,7.56,82.82,82.82,0,0,0,20.83,6.16c8.75,1.26,2.1,10.85-14.85,8.06a90.74,90.74,0,0,1-15-3.9,36.86,36.86,0,0,0-11.93,27.38A69,69,0,0,0,288,120.62c6.27,4.15,15.05,8.33,25,8.33h68.27a53.18,53.18,0,0,0,26.16-7.76,67.87,67.87,0,0,0,1.9-16.82A36.87,36.87,0,0,0,397.43,77Z" transform="translate(-3.84 -3.22)"/><path class="cls-1" d="M381.25,129H313c-9.92,0-18.7-4.18-25-8.33,3,12.42,10,20.21,20.95,20.21H386.6c10.76,0,17.69-7.55,20.81-19.64A53.18,53.18,0,0,1,381.25,129Z" transform="translate(-3.84 -3.22)"/><path class="cls-2" d="M284.39,90.61S290.81,84,295.14,86s2.25,25.55-1,30.93-9.86,4.48-12.4-2.09S277.36,99.88,284.39,90.61Z" transform="translate(-3.84 -3.22)"/><path class="cls-2" d="M278.58,108.39a36.29,36.29,0,0,0,1.74,5.74c2.54,6.57,9.12,7.47,12.4,2.09,2.25-3.68,3.94-15.91,3.39-23.88C292.93,100.54,286.6,108.65,278.58,108.39Z" transform="translate(-3.84 -3.22)"/><path class="cls-2" d="M293.77,85.29C289.44,83.35,283,89.92,283,89.92c-5.11,6.75-5.55,13-4.43,18.47,8,.26,14.35-7.85,17.53-16C295.86,88.67,295.14,85.9,293.77,85.29Z" transform="translate(-3.84 -3.22)"/><path d="M327.92,44.66c-.91,3.64-3.81,6.06-6.49,5.39s-4.11-4.16-3.2-7.8,3.81-6.06,6.49-5.39S328.83,41,327.92,44.66Z" transform="translate(-3.84 -3.22)"/><path class="cls-3" d="M326.23,41.14c-.18.73-.76,1.21-1.29,1.08a1.22,1.22,0,0,1-.64-1.57c.18-.73.76-1.21,1.29-1.07A1.21,1.21,0,0,1,326.23,41.14Z" transform="translate(-3.84 -3.22)"/><path class="cls-2" d="M411.18,89.92s-6.43-6.57-10.76-4.63-2.24,25.55,1,30.93,9.87,4.48,12.41-2.09S418.2,99.19,411.18,89.92Z" transform="translate(-3.84 -3.22)"/><path class="cls-2" d="M399.35,94.86c-.1,7.82,1.47,18,3.49,21.36,3.29,5.38,9.86,4.48,12.4-2.09a36.57,36.57,0,0,0,1.7-5.54C408.82,108.45,402.46,102.38,399.35,94.86Z" transform="translate(-3.84 -3.22)"/><path class="cls-2" d="M412.55,89.92s-6.42-6.57-10.76-4.63c-1.66.75-2.37,4.69-2.44,9.57,3.11,7.52,9.47,13.59,17.59,13.73C418.11,103.09,417.73,96.75,412.55,89.92Z" transform="translate(-3.84 -3.22)"/><path d="M367.64,44.66c.91,3.64,3.81,6.06,6.49,5.39s4.11-4.16,3.2-7.8-3.81-6.06-6.48-5.39S366.74,41,367.64,44.66Z" transform="translate(-3.84 -3.22)"/><path class="cls-3" d="M369.61,40.93c.18.73.76,1.22,1.3,1.08a1.23,1.23,0,0,0,.65-1.57c-.19-.73-.77-1.22-1.31-1.08A1.21,1.21,0,0,0,369.61,40.93Z" transform="translate(-3.84 -3.22)"/><path class="cls-4" d="M347.37,60.63l-19.48-2.29a6.09,6.09,0,0,0,3.73,3.73c3.07,1.2,6.88,3.52,11.06,5.38,3.06,1.37,4.26,1.42,4.69,1.34.43.08,1.64,0,4.7-1.34,4.18-1.86,8-4.18,11.05-5.38a6.09,6.09,0,0,0,3.74-3.73Z" transform="translate(-3.84 -3.22)"/><path class="cls-5" d="M348.06,59.94l-19.48-2.29a6.11,6.11,0,0,0,3.73,3.74c3.06,1.19,6.87,3.51,11.06,5.38,3.06,1.36,4.26,1.41,4.69,1.33.43.08,1.64,0,4.69-1.33,4.19-1.87,8-4.19,11.06-5.38a6.15,6.15,0,0,0,3.74-3.74Z" transform="translate(-3.84 -3.22)"/><path class="cls-6" d="M361.75,53.39c-3.66-.74-7.1-4.33-9-6.42a6.86,6.86,0,0,0-10,0c-1.87,2.09-5.31,5.68-9,6.42s-7.69,2.77-6.05,4.78,15.21,3.71,20,3.74h.12c4.75,0,18.33-1.73,20-3.74S365.41,54.14,361.75,53.39Z" transform="translate(-3.84 -3.22)"/><path class="cls-7" d="M359.44,9.09c6.43-1.47,15.72,2,23,13,6.72,10.16,3.94,17.08,2.59,17.25s-4.18-10.73-10.64-15.12C369.83,21.12,348.8,11.53,359.44,9.09Z" transform="translate(-3.84 -3.22)"/><path class="cls-7" d="M293.29,131.55s2.92-1.71,4.12,0,5.16,6.19,8.25,7.13.95,3.35-2,2.15S291.92,134.13,293.29,131.55Z" transform="translate(-3.84 -3.22)"/><path class="cls-7" d="M404.37,88.33a11,11,0,0,1,9,7c2.75,6.7,3.09,9.45,1.2,9.62s-3.38-6.54-5.23-8.44S399.56,90.65,404.37,88.33Z" transform="translate(-3.84 -3.22)"/><path class="cls-7" d="M348.61,86.63s-5.22.77-5.1,5.71-.75,20.06,3.38,21.26,5.53-7,5.09-15.12S352.22,87.32,348.61,86.63Z" transform="translate(-3.84 -3.22)"/><path class="cls-7" d="M346.85,117a4.39,4.39,0,0,0-1.38,4.64c.86,2.92,4.64,1.37,4.81-2.32S346.85,117,346.85,117Z" transform="translate(-3.84 -3.22)"/><path class="cls-7" d="M409.19,70.18s5.8-1.32,6.62,3.6.38,14.12-1.51,16.51-4-8.19-3.21-12.07S405.78,72.08,409.19,70.18Z" transform="translate(-3.84 -3.22)"/><g id="DESIGNED_BY_FREEPIK" data-name="DESIGNED BY FREEPIK"><path class="cls-8" d="M344.91,91.36,337.16,121a.63.63,0,0,0,.32.64l8,5.79a3.77,3.77,0,0,0,3.64,0l7.08-5.69a.58.58,0,0,0,.27-.57l-6-29.73c-.1-.5-1-.88-2.12-.88H347C346,90.5,345,90.87,344.91,91.36Z" transform="translate(-3.84 -3.22)"/><path class="cls-9" d="M349.91,92.13h-4.25a1.48,1.48,0,0,1-1.42-1.07l-2-6.71a1.49,1.49,0,0,1,1.43-1.91h8.55a1.49,1.49,0,0,1,1.4,2l-2.33,6.71A1.49,1.49,0,0,1,349.91,92.13Z" transform="translate(-3.84 -3.22)"/><path class="cls-3" d="M324.73,69l20.52,13.13a.81.81,0,0,1-.08,1.41L331.94,90.1a.82.82,0,0,1-1.12-.45L323.53,70A.81.81,0,0,1,324.73,69Z" transform="translate(-3.84 -3.22)"/><path class="cls-3" d="M370.84,69,350.32,82.14a.81.81,0,0,0,.07,1.41l13.24,6.55a.8.8,0,0,0,1.11-.45L372,70A.81.81,0,0,0,370.84,69Z" transform="translate(-3.84 -3.22)"/><path class="cls-10" d="M62.4,99.56a18,18,0,0,1-7.25-7.15,21.36,21.36,0,0,1-2.58-10.62V54.25h12.7v29a10.93,10.93,0,0,0,1,4.77A7.42,7.42,0,0,0,69,91.24a7.56,7.56,0,0,0,4.1,1.13,7.65,7.65,0,0,0,4.14-1.13A7.42,7.42,0,0,0,80,88a11.07,11.07,0,0,0,1-4.77V70a6.68,6.68,0,0,0-1.29-4.49A4.94,4.94,0,0,0,75.78,64a20.88,20.88,0,0,0-4.14.55l-1.18-8.13a22.13,22.13,0,0,1,4.85-2,18.94,18.94,0,0,1,5-.74,13.7,13.7,0,0,1,7.21,1.82,11.69,11.69,0,0,1,4.62,5.25,19.13,19.13,0,0,1,1.61,8.16V81.79a21.56,21.56,0,0,1-2.56,10.62,17.9,17.9,0,0,1-7.23,7.15,22.19,22.19,0,0,1-10.76,2.54A22.19,22.19,0,0,1,62.4,99.56Z" transform="translate(-3.84 -3.22)"/><path class="cls-10" d="M113.18,99.34a19.3,19.3,0,0,1-7.44-7.73A24.57,24.57,0,0,1,103,80.07l0-2.7a20.59,20.59,0,0,1,1.27-7,17.06,17.06,0,0,1,3.07-5.69q.36-.39.66-.66l-.07-.16c-1.59.32-3.55.79-5.86,1.41L99.6,56.08a78,78,0,0,1,11-2.21A90.73,90.73,0,0,1,122.38,53q11.06,0,17,5.77t5.92,16.77v4.5a24.4,24.4,0,0,1-2.64,11.56,18.8,18.8,0,0,1-7.44,7.73,22,22,0,0,1-11.09,2.74A21.3,21.3,0,0,1,113.18,99.34Zm15.31-9.16a9.19,9.19,0,0,0,3-4,15.91,15.91,0,0,0,1.05-6V75.77q0-6-2.18-9.2A7.21,7.21,0,0,0,124,63.39a6.93,6.93,0,0,0-6.21,3.36q-2.15,3.36-2.19,9.76v3.63a16.05,16.05,0,0,0,1,6,9.21,9.21,0,0,0,3,4,7.52,7.52,0,0,0,8.85,0Z" transform="translate(-3.84 -3.22)"/><path class="cls-10" d="M158.51,64.09h-7.26V54.25h20V81h-12.7Z" transform="translate(-3.84 -3.22)"/><path class="cls-10" d="M183.94,64.09h-4V54.25h16.71v46.91H183.94Z" transform="translate(-3.84 -3.22)"/><path class="cls-10" d="M209.8,64.09h-4V54.25h16.71v46.91H209.8Z" transform="translate(-3.84 -3.22)"/><path class="cls-10" d="M245,99.56a18,18,0,0,1-7.25-7.15,21.36,21.36,0,0,1-2.58-10.62V54.25h12.7v29a11.07,11.07,0,0,0,1,4.77,7.44,7.44,0,0,0,2.78,3.2,7.54,7.54,0,0,0,4.1,1.13,7.65,7.65,0,0,0,4.14-1.13,7.42,7.42,0,0,0,2.77-3.2,11.07,11.07,0,0,0,1-4.77V70a6.68,6.68,0,0,0-1.29-4.49A5,5,0,0,0,258.35,64a21.06,21.06,0,0,0-4.14.55L253,56.39a21.93,21.93,0,0,1,4.85-2,18.94,18.94,0,0,1,5-.74,13.64,13.64,0,0,1,7.2,1.82,11.71,11.71,0,0,1,4.63,5.25,19.13,19.13,0,0,1,1.6,8.16V81.79a21.56,21.56,0,0,1-2.55,10.62,17.9,17.9,0,0,1-7.23,7.15,24.06,24.06,0,0,1-21.52,0Z" transform="translate(-3.84 -3.22)"/><path class="cls-8" d="M21,116.35q2,1.94,2,6v12.62H20.82l0-12.67a8.58,8.58,0,0,0-.6-3.49,3.82,3.82,0,0,0-1.89-2,7.76,7.76,0,0,0-3.38-.62H11.87a7.19,7.19,0,0,0-1.16,2.59,13.73,13.73,0,0,0-.44,3.49v7.43c0,3.55-1.57,5.33-4.73,5.33a12.24,12.24,0,0,1-1.7-.14v-1.78a10.59,10.59,0,0,0,1.25.09,3,3,0,0,0,2.38-.85,4.27,4.27,0,0,0,.71-2.73v-7.25a13,13,0,0,1,.48-3.52A7.1,7.1,0,0,1,10,116.2H5.77v-1.78H14.9C17.63,114.42,19.65,115.07,21,116.35Z" transform="translate(-3.84 -3.22)"/><path class="cls-8" d="M38.19,120.24a4,4,0,0,0-1.09-2.94,3.91,3.91,0,0,0-2.92-1.1H26.9v-1.78h7.21a7.38,7.38,0,0,1,3.34.71,4.89,4.89,0,0,1,2.14,2.08,6.74,6.74,0,0,1,.74,3.24v14.48H38.19Z" transform="translate(-3.84 -3.22)"/><path class="cls-8" d="M46.54,114.42h7.1c2.73,0,4.75.65,6.07,1.93s2,3.28,2,6v12.62H59.56V122.26a8.4,8.4,0,0,0-.61-3.49,3.9,3.9,0,0,0-1.89-2,7.81,7.81,0,0,0-3.39-.62h-5v18.73H46.52Z" transform="translate(-3.84 -3.22)"/><path class="cls-8" d="M78.28,125.78l6.79,9.15H82.66l-9.9-13.35q-2.54,1.33-2.53,5v8.34H68.14v-7.76a8.87,8.87,0,0,1,.92-4.26,5.94,5.94,0,0,1,2.81-2.55l-4.42-5.94h2.41L77,124l5.69-9.55h2.44Z" transform="translate(-3.84 -3.22)"/><path class="cls-8" d="M111.43,122.24a8.4,8.4,0,0,0-.61-3.49,3.88,3.88,0,0,0-1.93-1.94,8.17,8.17,0,0,0-3.45-.61H98.53v-1.78h7c2.72,0,4.75.65,6.08,1.93s2,3.26,2,5.89v12.69h-2.13Zm-12.83,5.7a10.83,10.83,0,0,1,.74-4.29h1.83a10.28,10.28,0,0,0-.36,1.85,20.63,20.63,0,0,0-.12,2.44v7H98.6Z" transform="translate(-3.84 -3.22)"/><path class="cls-8" d="M121.84,132a20.22,20.22,0,0,0,3.7,1.19,17.5,17.5,0,0,0,3.74.42,13.47,13.47,0,0,0,4.59-.74,7.18,7.18,0,0,0,3.24-2.24,5.76,5.76,0,0,0,1.18-3.68V114.42h2.1V127a7.18,7.18,0,0,1-1.47,4.58,8.88,8.88,0,0,1-4,2.81,15.84,15.84,0,0,1-5.57.93,21.9,21.9,0,0,1-4.87-.57,22.49,22.49,0,0,1-4.74-1.63V114.42h2.07Zm7.12-6.88V114.42h2.11v10.37a8.72,8.72,0,0,1-.45,3,5.77,5.77,0,0,1-1.47,2.18l-1.81-.18Q129,128.42,129,125.07Z" transform="translate(-3.84 -3.22)"/><path class="cls-8" d="M148.68,116.2h-4v-1.78h6.17v11.32h-2.15Z" transform="translate(-3.84 -3.22)"/><path class="cls-8" d="M154.13,135v-2a4.48,4.48,0,0,0,.72.05,6.8,6.8,0,0,0,3.3-.92,6.35,6.35,0,0,0,2.24-2.22,7.77,7.77,0,0,0,1-3.07V116.2H156.7v-1.78h6.84v10.71a14.6,14.6,0,0,0,.31,3l1.48,6.78h-2.09l-1.18-6h-.14a6.53,6.53,0,0,1-1.2,3,7.58,7.58,0,0,1-2.58,2.28,7,7,0,0,1-3.43.87A3.9,3.9,0,0,1,154.13,135Z" transform="translate(-3.84 -3.22)"/><path class="cls-8" d="M184.81,133.26v1.67H168.35v-1.79h11.78v-10.9a8.4,8.4,0,0,0-.61-3.49,3.82,3.82,0,0,0-1.92-1.94,8.29,8.29,0,0,0-3.46-.61h-4.68v-1.78h4.75c2.7,0,4.72.65,6.06,1.93s2,3.26,2,5.89V133Z" transform="translate(-3.84 -3.22)"/><path class="cls-8" d="M210.15,122.24a8.4,8.4,0,0,0-.61-3.49,3.88,3.88,0,0,0-1.93-1.94,8.17,8.17,0,0,0-3.45-.61h-6.91v-1.78h7c2.72,0,4.74.65,6.07,1.93s2,3.26,2,5.89v12.69h-2.13Zm-12.83,5.7a10.83,10.83,0,0,1,.74-4.29h1.83a10.28,10.28,0,0,0-.36,1.85,20.63,20.63,0,0,0-.12,2.44v7h-2.09Z" transform="translate(-3.84 -3.22)"/><path class="cls-8" d="M216.85,134.25l.39-1.67a19.25,19.25,0,0,0,5.29.83,6.76,6.76,0,0,0,4.66-1.66,5.78,5.78,0,0,0,1.65-4.41V116.2H217.39v-1.78H231v12.36a9.57,9.57,0,0,1-1,4.62,6.61,6.61,0,0,1-2.89,2.84,9.74,9.74,0,0,1-4.48,1A20,20,0,0,1,216.85,134.25Z" transform="translate(-3.84 -3.22)"/><path class="cls-8" d="M239.28,116.2h-4v-1.78h6.17v11.32h-2.14Z" transform="translate(-3.84 -3.22)"/><path class="cls-8" d="M245.48,135l.13-1.74a12.24,12.24,0,0,0,2.58.23,2.92,2.92,0,0,0,2.33-.9,4.13,4.13,0,0,0,.78-2.77V116.2h-4.51v-1.78h6.66v15.51a5.66,5.66,0,0,1-1.26,4,4.78,4.78,0,0,1-3.68,1.35A12.85,12.85,0,0,1,245.48,135Z" transform="translate(-3.84 -3.22)"/><path class="cls-8" d="M260,114.42h7.1c2.73,0,4.75.65,6.07,1.93s2,3.28,2,6v12.62H273V122.26a8.58,8.58,0,0,0-.6-3.49,4,4,0,0,0-1.9-2,7.78,7.78,0,0,0-3.39-.62h-5v18.73H260Z" transform="translate(-3.84 -3.22)"/></g></svg>